<svg width="18" height="17" viewBox="0 0 18 17" fill="none" xmlns="http://www.w3.org/2000/svg">
<g clip-path="url(#clip0_1_583)">
<path d="M8.83908 0.708527C4.54293 0.708527 1.04761 4.20351 1.04761 8.5C1.04761 12.7965 4.54293 16.2915 8.83908 16.2915C13.1352 16.2915 16.6306 12.7965 16.6306 8.5C16.6306 4.20351 13.1352 0.708527 8.83908 0.708527ZM13.1532 4.32614L9.73476 8.02913C9.80929 8.17039 9.85536 8.32927 9.85536 8.5C9.85536 8.75746 9.75644 8.99019 9.59858 9.16939L10.829 11.3845C10.9201 11.5478 10.8608 11.7541 10.6975 11.8449C10.6454 11.8741 10.5888 11.8876 10.5332 11.8876C10.414 11.8876 10.2988 11.8246 10.2368 11.7131L9.00677 9.49934C8.95189 9.50849 8.89667 9.51628 8.83908 9.51628C8.27776 9.51628 7.8228 9.06133 7.8228 8.5C7.8228 7.93868 8.27776 7.48372 8.83908 7.48372C8.98136 7.48372 9.11687 7.51353 9.23984 7.56638L12.6552 3.86611C12.7822 3.72925 12.9963 3.7201 13.1339 3.84714C13.2714 3.97417 13.2799 4.18827 13.1532 4.32614Z" fill="white"/>
</g>
<defs>
<clipPath id="clip0_1_583">
<rect width="16.938" height="16.938" fill="white" transform="translate(0.370117 0.0310059)"/>
</clipPath>
</defs>
</svg>
