<svg width="17" height="17" viewBox="0 0 17 17" fill="none" xmlns="http://www.w3.org/2000/svg">
<g clip-path="url(#clip0_1_650)">
<path d="M1.90426 5.99444C2.11463 6.14289 2.74875 6.58378 3.80667 7.31688C4.86462 8.04998 5.67508 8.61445 6.23809 9.01032C6.29994 9.05371 6.43136 9.14804 6.63239 9.29343C6.83347 9.43892 7.00054 9.55649 7.13348 9.64616C7.26652 9.73581 7.42735 9.83638 7.61614 9.94771C7.80486 10.0589 7.98275 10.1426 8.14979 10.198C8.31686 10.2538 8.47152 10.2815 8.61379 10.2815H8.62312H8.63248C8.77475 10.2815 8.92947 10.2538 9.09654 10.198C9.26352 10.1426 9.44158 10.0588 9.63013 9.94771C9.81879 9.83625 9.97962 9.73578 10.1127 9.64616C10.2457 9.55649 10.4126 9.43892 10.6138 9.29343C10.8148 9.14791 10.9464 9.05371 11.0082 9.01032C11.5773 8.61445 13.0251 7.60906 15.3513 5.99425C15.8029 5.67886 16.1802 5.2983 16.4833 4.85283C16.7866 4.40755 16.9381 3.94043 16.9381 3.45173C16.9381 3.04335 16.7911 2.69376 16.4972 2.40301C16.2033 2.1122 15.8553 1.96687 15.4533 1.96687H1.79287C1.31652 1.96687 0.949935 2.1277 0.693183 2.44936C0.436465 2.77109 0.308105 3.17323 0.308105 3.65576C0.308105 4.04552 0.478298 4.46788 0.81852 4.92258C1.15871 5.37731 1.52074 5.73463 1.90426 5.99444Z" fill="white"/>
<path d="M16.01 6.98731C13.981 8.36065 12.4403 9.42796 11.3886 10.189C11.036 10.4488 10.7499 10.6515 10.5302 10.7968C10.3105 10.9422 10.0184 11.0907 9.65328 11.2422C9.28832 11.3939 8.94819 11.4696 8.63261 11.4696H8.62315H8.61382C8.2983 11.4696 7.95798 11.3939 7.59303 11.2422C7.22807 11.0907 6.93569 10.9422 6.71606 10.7968C6.49649 10.6515 6.21033 10.4488 5.85772 10.189C5.02246 9.57657 3.48507 8.5092 1.2455 6.98731C0.89276 6.75237 0.580329 6.48308 0.308105 6.17997V13.5482C0.308105 13.9568 0.453432 14.3062 0.744248 14.597C1.035 14.8878 1.38461 15.0332 1.79297 15.0332H15.4534C15.8617 15.0332 16.2112 14.8878 16.502 14.597C16.7929 14.3061 16.9382 13.9568 16.9382 13.5482V6.17997C16.6721 6.4768 16.3628 6.7461 16.01 6.98731Z" fill="white"/>
</g>
<defs>
<clipPath id="clip0_1_650">
<rect width="16.63" height="16.63" fill="white" transform="translate(0.308105 0.184986)"/>
</clipPath>
</defs>
</svg>
