<svg width="150" height="41" viewBox="0 0 150 41" fill="none" xmlns="http://www.w3.org/2000/svg">
<g clip-path="url(#clip0_2_569)">
<path d="M5.4054 12.9298C6.01197 9.21912 7.521 5.72568 9.94138 3.23438C10.332 6.39143 12.0777 9.25067 14.2199 12.173C13.6785 14.2789 13.3767 16.4969 13.3441 18.7884C10.4917 16.7421 7.58018 14.9341 5.4054 12.9298Z" fill="white"/>
<path d="M22.9545 0C17.6906 4.19073 14.1666 11.2092 13.9387 19.2192C17.8385 22.0714 21.5253 25.4282 22.9545 30.4003C24.3807 25.4282 28.0674 22.0714 31.9673 19.2192C31.7394 11.2092 28.2154 4.19073 22.9545 0Z" fill="white"/>
<path d="M5.02067 32.012C0.387041 25.7154 -1.00068 17.3795 0.697726 9.87402C4.24544 19.2331 26.5644 19.9059 22.9545 40.0991C16.445 41.0697 9.65726 38.3086 5.02067 32.012Z" fill="white"/>
<path d="M40.5009 12.9298C39.8944 9.21912 38.3853 5.72568 35.965 3.23438C35.5744 6.39143 33.8286 9.25067 31.6864 12.173C32.2279 14.2789 32.5297 16.4969 32.5622 18.7884C35.4146 16.7421 38.3262 14.9341 40.5009 12.9298Z" fill="white"/>
<path d="M40.8855 32.012C45.5191 25.7154 46.9069 17.3795 45.2085 9.87402C41.6607 19.2331 19.3418 19.9059 22.9546 40.0991C29.4612 41.0697 36.2489 38.3086 40.8855 32.012Z" fill="white"/>
<path d="M64.9217 20.1446L58.7441 6.10479H60.9103L66.5864 19.0616H65.3429L71.0591 6.10479H73.0648L66.9073 20.1446H64.9217ZM74.8552 20.1446V6.10479H76.8609V20.1446H74.8552ZM81.0643 20.1446V6.10479H82.7089L91.9953 17.6375H91.1329V6.10479H93.1386V20.1446H91.4939L82.2075 8.61192H83.07V20.1446H81.0643ZM100.731 20.1446V14.7694L101.192 16.0129L95.1548 6.10479H97.3009L102.375 14.4685H101.212L106.307 6.10479H108.292L102.275 16.0129L102.716 14.7694V20.1446H100.731ZM107.359 20.1446L113.717 6.10479H115.703L122.081 20.1446H119.975L114.299 7.22798H115.101L109.425 20.1446H107.359ZM110.067 16.6347L110.608 15.0301H118.511L119.092 16.6347H110.067ZM128.267 20.3051C127.197 20.3051 126.174 20.1446 125.198 19.8237C124.222 19.4894 123.453 19.0616 122.891 18.5401L123.634 16.9756C124.168 17.4436 124.85 17.8314 125.679 18.1389C126.508 18.4465 127.371 18.6002 128.267 18.6002C129.082 18.6002 129.744 18.5066 130.252 18.3194C130.76 18.1322 131.135 17.8782 131.376 17.5573C131.616 17.223 131.737 16.8486 131.737 16.4341C131.737 15.9527 131.576 15.565 131.255 15.2708C130.948 14.9766 130.54 14.7426 130.032 14.5688C129.537 14.3816 128.989 14.2211 128.387 14.0874C127.785 13.9537 127.177 13.7999 126.562 13.6261C125.96 13.4389 125.405 13.2049 124.897 12.9241C124.402 12.6433 124.001 12.2689 123.694 11.8009C123.386 11.3196 123.232 10.7045 123.232 9.95573C123.232 9.23368 123.42 8.5718 123.794 7.97009C124.182 7.35501 124.77 6.86696 125.559 6.50593C126.361 6.13154 127.378 5.94434 128.608 5.94434C129.423 5.94434 130.232 6.05131 131.035 6.26525C131.837 6.47919 132.532 6.78673 133.121 7.18787L132.459 8.79243C131.857 8.39129 131.222 8.10381 130.553 7.92998C129.885 7.74278 129.236 7.64918 128.608 7.64918C127.819 7.64918 127.17 7.74947 126.662 7.95004C126.154 8.1506 125.78 8.41803 125.539 8.75232C125.312 9.0866 125.198 9.46099 125.198 9.87551C125.198 10.3702 125.352 10.7646 125.659 11.0588C125.98 11.353 126.388 11.587 126.883 11.7608C127.391 11.9346 127.946 12.0951 128.548 12.2422C129.149 12.3759 129.751 12.5297 130.353 12.7035C130.968 12.8773 131.523 13.1046 132.017 13.3854C132.526 13.6662 132.933 14.0406 133.241 14.5086C133.548 14.9766 133.702 15.5783 133.702 16.3137C133.702 17.0224 133.508 17.6843 133.121 18.2994C132.733 18.9011 132.131 19.3892 131.315 19.7635C130.513 20.1246 129.497 20.3051 128.267 20.3051ZM134.506 20.1446L140.864 6.10479H142.85L149.228 20.1446H147.122L141.446 7.22798H142.248L136.572 20.1446H134.506ZM137.214 16.6347L137.756 15.0301H145.658L146.24 16.6347H137.214Z" fill="white"/>
<path d="M60.6066 38.8537C60.3134 38.8537 60.032 38.8061 59.7626 38.7111C59.5011 38.616 59.2752 38.4733 59.085 38.2831L59.4773 37.6531C59.6358 37.8037 59.8062 37.9186 59.9884 37.9978C60.1786 38.085 60.3886 38.1286 60.6185 38.1286C60.8958 38.1286 61.1336 38.0493 61.3317 37.8908C61.5377 37.7403 61.7319 37.4708 61.9141 37.0825L62.3183 36.1672L62.4134 36.0365L64.981 30.2475H65.8131L62.6868 37.2371C62.5124 37.6412 62.3183 37.9622 62.1043 38.1999C61.8983 38.4377 61.6724 38.6041 61.4268 38.6992C61.1811 38.8022 60.9077 38.8537 60.6066 38.8537ZM62.2707 36.6665L59.3941 30.2475H60.2737L62.8175 35.977L62.2707 36.6665ZM71.3922 36.5476C70.7899 36.5476 70.2471 36.4129 69.7637 36.1435C69.2882 35.8661 68.9118 35.4897 68.6344 35.0142C68.357 34.5308 68.2183 33.98 68.2183 33.3619C68.2183 32.7358 68.357 32.1851 68.6344 31.7096C68.9118 31.2341 69.2882 30.8617 69.7637 30.5922C70.2391 30.3228 70.782 30.1881 71.3922 30.1881C72.0103 30.1881 72.5571 30.3228 73.0326 30.5922C73.516 30.8617 73.8924 31.2341 74.1618 31.7096C74.4392 32.1851 74.5779 32.7358 74.5779 33.3619C74.5779 33.98 74.4392 34.5308 74.1618 35.0142C73.8924 35.4897 73.516 35.8661 73.0326 36.1435C72.5492 36.4129 72.0024 36.5476 71.3922 36.5476ZM71.3922 35.7987C71.8439 35.7987 72.2441 35.6997 72.5928 35.5016C72.9414 35.2955 73.2149 35.0102 73.413 34.6457C73.619 34.2732 73.722 33.8453 73.722 33.3619C73.722 32.8706 73.619 32.4426 73.413 32.0781C73.2149 31.7136 72.9414 31.4322 72.5928 31.2341C72.2441 31.0281 71.8478 30.9251 71.4041 30.9251C70.9603 30.9251 70.564 31.0281 70.2154 31.2341C69.8667 31.4322 69.5893 31.7136 69.3833 32.0781C69.1772 32.4426 69.0742 32.8706 69.0742 33.3619C69.0742 33.8453 69.1772 34.2732 69.3833 34.6457C69.5893 35.0102 69.8667 35.2955 70.2154 35.5016C70.564 35.6997 70.9563 35.7987 71.3922 35.7987ZM80.9844 38.8537C80.4139 38.8537 79.8671 38.7705 79.344 38.6041C78.821 38.4377 78.397 38.1999 78.0721 37.8908L78.5001 37.249C78.7933 37.5105 79.1538 37.7165 79.5818 37.8671C80.0176 38.0256 80.4773 38.1048 80.9607 38.1048C81.7531 38.1048 82.3356 37.9186 82.7081 37.5461C83.0805 37.1816 83.2667 36.611 83.2667 35.8344V34.2772L83.3856 33.2074L83.3024 32.1375V30.2475H84.1107V35.7274C84.1107 36.8052 83.8452 37.5937 83.3143 38.0929C82.7913 38.6001 82.0146 38.8537 80.9844 38.8537ZM80.8299 36.2504C80.2356 36.2504 79.7006 36.1236 79.2252 35.8701C78.7497 35.6085 78.3733 35.248 78.0959 34.7883C77.8265 34.3287 77.6917 33.8017 77.6917 33.2074C77.6917 32.613 77.8265 32.09 78.0959 31.6383C78.3733 31.1786 78.7497 30.822 79.2252 30.5684C79.7006 30.3149 80.2356 30.1881 80.8299 30.1881C81.3846 30.1881 81.8839 30.303 82.3277 30.5328C82.7715 30.7626 83.1241 31.1034 83.3856 31.5551C83.6471 32.0068 83.7779 32.5575 83.7779 33.2074C83.7779 33.8572 83.6471 34.408 83.3856 34.8597C83.1241 35.3114 82.7715 35.6561 82.3277 35.8938C81.8839 36.1316 81.3846 36.2504 80.8299 36.2504ZM80.9131 35.5016C81.3727 35.5016 81.7809 35.4065 82.1375 35.2163C82.4941 35.0182 82.7754 34.7487 82.9815 34.408C83.1875 34.0593 83.2905 33.6591 83.2905 33.2074C83.2905 32.7557 83.1875 32.3594 82.9815 32.0187C82.7754 31.6779 82.4941 31.4124 82.1375 31.2222C81.7809 31.0241 81.3727 30.9251 80.9131 30.9251C80.4614 30.9251 80.0533 31.0241 79.6888 31.2222C79.3321 31.4124 79.0508 31.6779 78.8448 32.0187C78.6467 32.3594 78.5476 32.7557 78.5476 33.2074C78.5476 33.6591 78.6467 34.0593 78.8448 34.408C79.0508 34.7487 79.3321 35.0182 79.6888 35.2163C80.0533 35.4065 80.4614 35.5016 80.9131 35.5016ZM92.3909 36.4882V35.1093L92.3552 34.8834V32.5774C92.3552 32.0464 92.2046 31.6383 91.9035 31.353C91.6103 31.0677 91.1705 30.9251 90.584 30.9251C90.1799 30.9251 89.7955 30.9924 89.431 31.1271C89.0665 31.2619 88.7574 31.4402 88.5038 31.6621L88.1234 31.032C88.4404 30.7626 88.8208 30.5566 89.2646 30.4139C89.7084 30.2633 90.1759 30.1881 90.6672 30.1881C91.4756 30.1881 92.0977 30.3901 92.5335 30.7943C92.9773 31.1905 93.1992 31.7968 93.1992 32.613V36.4882H92.3909ZM90.2393 36.5476C89.7718 36.5476 89.3636 36.4723 89.015 36.3218C88.6742 36.1633 88.4127 35.9493 88.2304 35.6799C88.0481 35.4025 87.957 35.0855 87.957 34.7289C87.957 34.404 88.0323 34.1108 88.1829 33.8493C88.3414 33.5798 88.5949 33.3659 88.9436 33.2074C89.3002 33.0409 89.7757 32.9577 90.3701 32.9577H92.5216V33.5877H90.3938C89.7916 33.5877 89.3716 33.6947 89.1338 33.9087C88.904 34.1227 88.7891 34.3881 88.7891 34.7051C88.7891 35.0617 88.9278 35.347 89.2051 35.561C89.4825 35.775 89.8708 35.8819 90.3701 35.8819C90.8456 35.8819 91.2537 35.775 91.5944 35.561C91.9431 35.3391 92.1967 35.0221 92.3552 34.61L92.5454 35.1925C92.3869 35.6046 92.1095 35.9335 91.7133 36.1791C91.325 36.4248 90.8337 36.5476 90.2393 36.5476ZM104.32 36.5476C103.805 36.5476 103.318 36.4763 102.858 36.3337C102.398 36.1831 102.038 35.9969 101.776 35.775L102.157 35.1093C102.41 35.2995 102.735 35.4659 103.132 35.6085C103.528 35.7433 103.944 35.8106 104.38 35.8106C104.974 35.8106 105.402 35.7195 105.663 35.5372C105.925 35.347 106.056 35.0974 106.056 34.7883C106.056 34.5585 105.98 34.3802 105.83 34.2534C105.687 34.1187 105.497 34.0196 105.259 33.9562C105.022 33.8849 104.756 33.8255 104.463 33.7779C104.17 33.7304 103.876 33.6749 103.583 33.6115C103.298 33.5481 103.036 33.457 102.799 33.3381C102.561 33.2113 102.367 33.0409 102.216 32.827C102.074 32.613 102.002 32.3277 102.002 31.9711C102.002 31.6304 102.097 31.3253 102.288 31.0558C102.478 30.7864 102.755 30.5764 103.12 30.4258C103.492 30.2673 103.944 30.1881 104.475 30.1881C104.879 30.1881 105.283 30.2435 105.687 30.3545C106.091 30.4575 106.424 30.5962 106.686 30.7705L106.317 31.4481C106.04 31.2579 105.743 31.1232 105.426 31.0439C105.109 30.9568 104.792 30.9132 104.475 30.9132C103.912 30.9132 103.496 31.0122 103.227 31.2103C102.965 31.4005 102.834 31.6462 102.834 31.9473C102.834 32.1851 102.906 32.3713 103.048 32.506C103.199 32.6408 103.393 32.7477 103.631 32.827C103.876 32.8983 104.142 32.9577 104.427 33.0053C104.72 33.0528 105.01 33.1123 105.295 33.1836C105.588 33.247 105.854 33.3381 106.091 33.457C106.337 33.5679 106.531 33.7304 106.674 33.9444C106.824 34.1504 106.9 34.4238 106.9 34.7646C106.9 35.1291 106.797 35.4461 106.591 35.7155C106.393 35.977 106.099 36.1831 105.711 36.3337C105.331 36.4763 104.867 36.5476 104.32 36.5476ZM112.442 36.5476C111.856 36.5476 111.404 36.3891 111.087 36.0721C110.77 35.7551 110.612 35.3074 110.612 34.7289V28.8686H111.456V34.6814C111.456 35.0459 111.547 35.3272 111.729 35.5253C111.919 35.7234 112.189 35.8225 112.537 35.8225C112.91 35.8225 113.219 35.7155 113.465 35.5016L113.762 36.1078C113.595 36.2584 113.393 36.3693 113.156 36.4406C112.926 36.512 112.688 36.5476 112.442 36.5476ZM109.494 30.9488V30.2475H113.358V30.9488H109.494ZM119.899 36.5476C119.368 36.5476 118.904 36.4486 118.508 36.2504C118.112 36.0523 117.802 35.7551 117.581 35.3589C117.367 34.9627 117.26 34.4674 117.26 33.873V30.2475H118.104V33.7779C118.104 34.4436 118.266 34.9468 118.591 35.2876C118.924 35.6204 119.387 35.7868 119.982 35.7868C120.418 35.7868 120.794 35.6997 121.111 35.5253C121.436 35.3431 121.682 35.0816 121.848 34.7408C122.022 34.4 122.11 33.9919 122.11 33.5164V30.2475H122.953V36.4882H122.145V34.7765L122.276 35.0855C122.078 35.5451 121.769 35.9057 121.349 36.1672C120.937 36.4208 120.453 36.5476 119.899 36.5476ZM129.811 36.5476C129.216 36.5476 128.682 36.4129 128.206 36.1435C127.739 35.874 127.37 35.5016 127.101 35.0261C126.831 34.5427 126.696 33.9879 126.696 33.3619C126.696 32.7279 126.831 32.1732 127.101 31.6977C127.37 31.2222 127.739 30.8537 128.206 30.5922C128.682 30.3228 129.216 30.1881 129.811 30.1881C130.358 30.1881 130.845 30.3109 131.273 30.5566C131.709 30.8022 132.054 31.1628 132.307 31.6383C132.569 32.1058 132.699 32.6804 132.699 33.3619C132.699 34.0355 132.573 34.61 132.319 35.0855C132.065 35.561 131.721 35.9255 131.285 36.1791C130.857 36.4248 130.366 36.5476 129.811 36.5476ZM129.87 35.7987C130.314 35.7987 130.71 35.6997 131.059 35.5016C131.416 35.2955 131.693 35.0102 131.891 34.6457C132.097 34.2732 132.2 33.8453 132.2 33.3619C132.2 32.8706 132.097 32.4426 131.891 32.0781C131.693 31.7136 131.416 31.4322 131.059 31.2341C130.71 31.0281 130.314 30.9251 129.87 30.9251C129.434 30.9251 129.042 31.0281 128.693 31.2341C128.345 31.4322 128.067 31.7136 127.861 32.0781C127.655 32.4426 127.552 32.8706 127.552 33.3619C127.552 33.8453 127.655 34.2732 127.861 34.6457C128.067 35.0102 128.345 35.2955 128.693 35.5016C129.042 35.6997 129.434 35.7987 129.87 35.7987ZM132.224 36.4882V34.61L132.307 33.35L132.188 32.09V27.668H133.032V36.4882H132.224ZM137.403 36.4882V30.2475H138.247V36.4882H137.403ZM137.831 28.8686C137.657 28.8686 137.51 28.8092 137.392 28.6903C137.273 28.5714 137.213 28.4288 137.213 28.2624C137.213 28.0959 137.273 27.9573 137.392 27.8463C137.51 27.7275 137.657 27.668 137.831 27.668C138.006 27.668 138.152 27.7235 138.271 27.8344C138.39 27.9454 138.45 28.0841 138.45 28.2505C138.45 28.4248 138.39 28.5714 138.271 28.6903C138.16 28.8092 138.014 28.8686 137.831 28.8686ZM145.16 36.5476C144.558 36.5476 144.015 36.4129 143.532 36.1435C143.056 35.8661 142.68 35.4897 142.403 35.0142C142.125 34.5308 141.987 33.98 141.987 33.3619C141.987 32.7358 142.125 32.1851 142.403 31.7096C142.68 31.2341 143.056 30.8617 143.532 30.5922C144.007 30.3228 144.55 30.1881 145.16 30.1881C145.779 30.1881 146.325 30.3228 146.801 30.5922C147.284 30.8617 147.661 31.2341 147.93 31.7096C148.207 32.1851 148.346 32.7358 148.346 33.3619C148.346 33.98 148.207 34.5308 147.93 35.0142C147.661 35.4897 147.284 35.8661 146.801 36.1435C146.317 36.4129 145.771 36.5476 145.16 36.5476ZM145.16 35.7987C145.612 35.7987 146.012 35.6997 146.361 35.5016C146.71 35.2955 146.983 35.0102 147.181 34.6457C147.387 34.2732 147.49 33.8453 147.49 33.3619C147.49 32.8706 147.387 32.4426 147.181 32.0781C146.983 31.7136 146.71 31.4322 146.361 31.2341C146.012 31.0281 145.616 30.9251 145.172 30.9251C144.728 30.9251 144.332 31.0281 143.984 31.2341C143.635 31.4322 143.358 31.7136 143.151 32.0781C142.945 32.4426 142.842 32.8706 142.842 33.3619C142.842 33.8453 142.945 34.2732 143.151 34.6457C143.358 35.0102 143.635 35.2955 143.984 35.5016C144.332 35.6997 144.725 35.7987 145.16 35.7987Z" fill="white"/>
</g>
<defs>
<clipPath id="clip0_2_569">
<rect width="150" height="41" fill="white"/>
</clipPath>
</defs>
</svg>
