<svg width="17" height="17" viewBox="0 0 17 17" fill="none" xmlns="http://www.w3.org/2000/svg">
<g clip-path="url(#clip0_1_617)">
<path d="M8.30788 0.500046C5.24633 0.500046 2.75562 2.99112 2.75562 6.05276C2.75562 8.99985 7.79328 15.8853 8.00778 16.1769L8.20797 16.4493C8.21947 16.465 8.2345 16.4778 8.25186 16.4866C8.26922 16.4954 8.28841 16.5 8.30788 16.5C8.32745 16.5001 8.34674 16.4955 8.3642 16.4867C8.38167 16.4779 8.39681 16.4651 8.4084 16.4493L8.60847 16.1769C8.82309 15.8853 13.8606 8.99985 13.8606 6.05276C13.8606 2.99112 11.3695 0.500046 8.30788 0.500046ZM8.30788 4.06379C9.40485 4.06379 10.2969 4.95583 10.2969 6.05276C10.2969 7.14912 9.40481 8.04173 8.30788 8.04173C7.21157 8.04173 6.31891 7.14912 6.31891 6.05276C6.31891 4.95583 7.21152 4.06379 8.30788 4.06379Z" fill="white"/>
</g>
<defs>
<clipPath id="clip0_1_617">
<rect width="16" height="16" fill="white" transform="translate(0.308105 0.5)"/>
</clipPath>
</defs>
</svg>
