<svg width="30" height="30" viewBox="0 0 30 30" fill="none" xmlns="http://www.w3.org/2000/svg">
<g clip-path="url(#clip0_2_249)">
<path d="M29.6334 27.8667L21.1023 19.3355C22.7548 17.2943 23.7498 14.7006 23.7498 11.8756C23.7498 5.3282 18.4223 0.000732422 11.8748 0.000732422C5.32741 0.000732422 0 5.32814 0 11.8756C0 18.423 5.32747 23.7505 11.8749 23.7505C14.6999 23.7505 17.2936 22.7555 19.3348 21.103L27.866 29.6342C28.1097 29.8779 28.4297 30.0004 28.7497 30.0004C29.0698 30.0004 29.3898 29.8779 29.6335 29.6342C30.1222 29.1455 30.1222 28.3554 29.6334 27.8667ZM11.8749 21.2505C6.70494 21.2505 2.5 17.0455 2.5 11.8756C2.5 6.70561 6.70494 2.50067 11.8749 2.50067C17.0449 2.50067 21.2498 6.70561 21.2498 11.8756C21.2498 17.0455 17.0448 21.2505 11.8749 21.2505Z" fill="white"/>
</g>
<defs>
<clipPath id="clip0_2_249">
<rect width="30" height="30" fill="white"/>
</clipPath>
</defs>
</svg>
