<svg width="17" height="17" viewBox="0 0 17 17" fill="none" xmlns="http://www.w3.org/2000/svg">
<g clip-path="url(#clip0_1_611)">
<path d="M15.3256 11.8001C15.2846 11.7676 12.3081 9.62213 11.4911 9.77613C11.1011 9.84513 10.8781 10.1111 10.4306 10.6436C10.3586 10.7296 10.1856 10.9356 10.0511 11.0821C9.7683 10.9899 9.49244 10.8776 9.22561 10.7461C7.84837 10.0756 6.7356 8.96287 6.06511 7.58563C5.93354 7.31884 5.82125 7.04297 5.72911 6.76013C5.87611 6.62513 6.08211 6.45213 6.17011 6.37813C6.70011 5.93313 6.96661 5.71013 7.03561 5.31913C7.17711 4.50913 5.03311 1.51213 5.01061 1.48513C4.91333 1.34617 4.78638 1.23056 4.63894 1.14668C4.4915 1.0628 4.32726 1.01274 4.15811 1.00013C3.28911 1.00013 0.808105 4.21863 0.808105 4.76063C0.808105 4.79213 0.853606 7.99413 4.80211 12.0106C8.81461 15.9546 12.0161 16.0001 12.0476 16.0001C12.5901 16.0001 15.8081 13.5191 15.8081 12.6501C15.7956 12.4816 15.7459 12.3179 15.6624 12.1709C15.579 12.0239 15.4639 11.8973 15.3256 11.8001Z" fill="white"/>
</g>
<defs>
<clipPath id="clip0_1_611">
<rect width="16" height="16" fill="white" transform="translate(0.308105 0.5)"/>
</clipPath>
</defs>
</svg>
