<svg width="33" height="32" viewBox="0 0 33 32" fill="none" xmlns="http://www.w3.org/2000/svg">
<path d="M17.4019 14.4379L17.4018 6.50637C17.4017 6.28812 17.3162 6.08228 17.1611 5.9268C17.0057 5.77141 16.7997 5.68578 16.5814 5.68604L15.8865 5.68613C15.6678 5.68596 15.4622 5.77167 15.3068 5.92715C15.1515 6.08237 15.0658 6.28795 15.066 6.50663L15.0659 14.4379L7.13446 14.4382C6.91595 14.4378 6.71028 14.5236 6.55489 14.679C6.39967 14.8342 6.31387 15.0399 6.31422 15.2584L6.31396 15.9535C6.31396 16.4061 6.682 16.7741 7.13429 16.7739H15.0659L15.0658 24.7054C15.066 24.9239 15.1515 25.1296 15.3068 25.2849C15.4621 25.4402 15.6679 25.5258 15.8863 25.5259L16.5814 25.5257C16.7998 25.5259 17.0056 25.4401 17.1608 25.285C17.3161 25.1296 17.4019 24.9239 17.4016 24.7054L17.4018 16.7739H25.3331C25.5517 16.774 25.7574 16.6884 25.9126 16.5332C26.0679 16.3779 26.1537 16.172 26.1536 15.9534L26.1537 15.2585C26.1536 15.0402 26.0681 14.8343 25.9128 14.679C25.7574 14.5237 25.5516 14.4383 25.3333 14.4381L17.4019 14.4379Z" fill="black"/>
</svg>
