<svg width="20" height="19" viewBox="0 0 20 19" fill="none" xmlns="http://www.w3.org/2000/svg">
<g clip-path="url(#clip0_1_572)">
<path d="M1.17746 9.08582L5.51965 10.7065L7.20034 16.1116C7.30788 16.4577 7.7312 16.5857 8.01217 16.356L10.4326 14.3828C10.6863 14.1761 11.0477 14.1658 11.3128 14.3582L15.6784 17.5277C15.9789 17.7462 16.4048 17.5815 16.4802 17.2183L19.6782 1.83533C19.7604 1.43859 19.3706 1.10761 18.9928 1.25372L1.17237 8.12832C0.732597 8.29792 0.736429 8.92055 1.17746 9.08582ZM6.92948 9.84375L15.4157 4.61706C15.5683 4.5234 15.7252 4.72962 15.5942 4.85111L8.59058 11.3613C8.3444 11.5905 8.18561 11.8971 8.14063 12.23L7.90206 13.998C7.87046 14.2341 7.53886 14.2575 7.47372 14.029L6.55617 10.805C6.45108 10.4373 6.60422 10.0445 6.92948 9.84375Z" fill="white"/>
</g>
<defs>
<clipPath id="clip0_1_572">
<rect width="18.8447" height="18.8447" fill="white" transform="translate(0.844727)"/>
</clipPath>
</defs>
</svg>
