<svg width="20" height="19" viewBox="0 0 20 19" fill="none" xmlns="http://www.w3.org/2000/svg">
<g clip-path="url(#clip0_1_576)">
<path d="M19.5346 3.57931C18.8338 3.88672 18.0871 4.09048 17.3086 4.18941C18.1095 3.71123 18.7208 2.9598 19.0082 2.05407C18.2614 2.49928 17.437 2.81375 16.5583 2.98924C15.8493 2.23428 14.8388 1.76669 13.7363 1.76669C11.5975 1.76669 9.87555 3.50276 9.87555 5.63103C9.87555 5.93726 9.90146 6.2317 9.96506 6.51202C6.75322 6.35537 3.9112 4.816 2.002 2.47101C1.66869 3.04931 1.47317 3.71123 1.47317 4.42379C1.47317 5.76176 2.16218 6.9478 3.18922 7.63445C2.56852 7.62268 1.9596 7.44247 1.44373 7.15863C1.44373 7.1704 1.44373 7.18572 1.44373 7.20103C1.44373 9.07843 2.78288 10.6378 4.53897 10.9971C4.2245 11.083 3.88176 11.1243 3.52607 11.1243C3.27873 11.1243 3.02904 11.1101 2.79466 11.0583C3.29522 12.5883 4.71564 13.713 6.40459 13.7496C5.09017 14.7778 3.42124 15.3973 1.61451 15.3973C1.29768 15.3973 0.993812 15.3832 0.689941 15.3443C2.40127 16.4479 4.42943 17.078 6.61659 17.078C13.7257 17.078 17.6125 11.189 17.6125 6.08448C17.6125 5.9137 17.6066 5.74881 17.5983 5.5851C18.3651 5.04095 19.0093 4.36137 19.5346 3.57931Z" fill="white"/>
</g>
<defs>
<clipPath id="clip0_1_576">
<rect width="18.8447" height="18.8447" fill="white" transform="translate(0.689453)"/>
</clipPath>
</defs>
</svg>
