<svg width="19" height="19" viewBox="0 0 19 19" fill="none" xmlns="http://www.w3.org/2000/svg">
<g clip-path="url(#clip0_1_567)">
<path d="M9.42531 9.72748e-05H9.4206C4.22535 9.72748e-05 0.000610352 4.22602 0.000610352 9.42244C0.000610352 11.4836 0.664885 13.394 1.79439 14.9451L0.620129 18.4455L4.24184 17.2877C5.73175 18.2747 7.50904 18.8448 9.42531 18.8448C14.6205 18.8448 18.8453 14.6177 18.8453 9.42244C18.8453 4.22719 14.6205 9.72748e-05 9.42531 9.72748e-05ZM14.9079 13.3056C14.6806 13.9475 13.7784 14.4799 13.0588 14.6353C12.5665 14.7402 11.9234 14.8238 9.75862 13.9263C6.98963 12.7791 5.20645 9.9654 5.06747 9.78284C4.93438 9.60028 3.94857 8.29293 3.94857 6.94083C3.94857 5.58872 4.63522 4.93034 4.91201 4.64767C5.13932 4.41564 5.51504 4.30964 5.87544 4.30964C5.99204 4.30964 6.09686 4.31553 6.19109 4.32024C6.46787 4.33202 6.60685 4.34851 6.78941 4.78547C7.01672 5.33314 7.57028 6.68525 7.63624 6.82423C7.70337 6.96321 7.77051 7.15165 7.67628 7.33421C7.58795 7.52266 7.51022 7.60628 7.37124 7.76646C7.23226 7.92664 7.10034 8.04913 6.96136 8.22109C6.83416 8.37067 6.69047 8.53085 6.85065 8.80763C7.01083 9.07852 7.56439 9.98189 8.37943 10.7074C9.4312 11.6438 10.2839 11.9429 10.589 12.0701C10.8163 12.1643 11.0872 12.142 11.2532 11.9653C11.4641 11.738 11.7244 11.3611 11.9894 10.9901C12.1778 10.7239 12.4157 10.6909 12.6654 10.7851C12.9198 10.8735 14.266 11.5389 14.5428 11.6767C14.8196 11.8157 15.0022 11.8817 15.0693 11.9983C15.1352 12.1149 15.1352 12.6625 14.9079 13.3056Z" fill="white"/>
</g>
<defs>
<clipPath id="clip0_1_567">
<rect width="18.8447" height="18.8447" fill="white"/>
</clipPath>
</defs>
</svg>
